# xmcd
#
# Track frame offsets:
#	150
#	18118
#	40777
#	61513
#	75059
#	100294
#	118458
#	136982
#	155841
#	172989
#
# Disc length: 2541 seconds
#
# Revision: 0
# Processed by: cddbd v1.5.1PL0 Copyright (c) Steve Scherf et al.
# Submitted via: audiograbber 1.83.01
#
DISCID=7009eb0a
DTITLE=Johnny Adams - After Dark
DYEAR=1986
DGENRE=Blues
TTITLE0=Lovers Will
TTITLE1=I Don't Know You
TTITLE2=Fortune Teller
TTITLE3=Missing You
TTITLE4=Do Right Woman - Do Right Man
TTITLE5=Give A Broken Heart A Break
TTITLE6=She Said The Same Things To Me
TTITLE7=Garbage Man
TTITLE8=Dancing Man
TTITLE9=Snap Your Fingers
EXTD=
EXTT0=
EXTT1=
EXTT2=
EXTT3=
EXTT4=
EXTT5=
EXTT6=
EXTT7=
EXTT8=
EXTT9=
PLAYORDER=
